<?xml version="1.0" encoding="UTF-8"?>
<svg width="192px" height="27px" viewBox="0 0 192 27" version="1.1" xmlns="http://www.w3.org/2000/svg" xmlns:xlink="http://www.w3.org/1999/xlink">
    <!-- Generator: Sketch 47.1 (45422) - http://www.bohemiancoding.com/sketch -->
    <title>Group 2</title>
    <desc>Created with Sketch.</desc>
    <defs>
        <polygon id="path-1" points="0 21.1143 0 0.7333 9.5909 0.7333 9.5909 21.1143"></polygon>
    </defs>
    <g id="Page-1" stroke="none" stroke-width="1" fill="none" fill-rule="evenodd">
        <g id="art" transform="translate(-114.000000, -207.000000)">
            <g id="Group-2" transform="translate(114.000000, 207.000000)">
                <g id="Group-3" opacity="0.35" transform="translate(0.000000, 0.915000)">
                    <mask id="mask-2" fill="white">
                        <use xlink:href="#path-1"></use>
                    </mask>
                    <g id="Clip-2"></g>
                    <path d="M6.9229,21.1143 C5.3639,21.1143 4.1599,20.8003 3.3119,20.1703 C2.4619,19.5413 2.0379,18.4473 2.0379,16.8883 L2.0379,8.6463 L-0.0001,8.6463 L-0.0001,5.5893 L2.0379,5.5893 L2.0379,0.7333 L6.8039,0.7333 L6.8039,5.5893 L9.5909,5.5893 L9.5909,8.6463 L6.8039,8.6463 L6.8039,15.8393 C6.8039,16.3993 6.9479,16.7883 7.2379,17.0083 C7.5269,17.2283 7.9519,17.3383 8.5119,17.3383 C8.6719,17.3383 8.8809,17.3333 9.1419,17.3223 C9.4009,17.3133 9.5509,17.3083 9.5909,17.3083 L9.5909,20.8743 C9.0309,21.0343 8.1419,21.1143 6.9229,21.1143" id="Fill-1" fill="#2D2D2D" mask="url(#mask-2)"></path>
                </g>
                <path d="M11.3594,21.8496 L11.3594,6.5036 L16.0354,6.5036 L16.0354,8.9016 L16.1254,8.9016 C17.1644,7.1436 18.5624,6.2646 20.3214,6.2646 C20.7804,6.2646 21.1004,6.3046 21.2804,6.3836 L21.2804,10.5796 L21.1604,10.5796 C19.6414,10.3606 18.4424,10.6246 17.5634,11.3746 C16.6844,12.1236 16.2454,13.3176 16.2454,14.9556 L16.2454,21.8496 L11.3594,21.8496 Z" id="Fill-4" fill="#2D2D2D" opacity="0.35"></path>
                <path d="M28.4727,19.122 C29.3917,19.122 30.1367,18.867 30.7057,18.358 C31.2757,17.848 31.5607,17.184 31.5607,16.365 L31.5607,14.537 C31.0807,14.776 30.2417,15.046 29.0417,15.346 C28.0637,15.566 27.3737,15.825 26.9747,16.125 C26.5747,16.425 26.3747,16.854 26.3747,17.414 C26.3747,18.553 27.0747,19.122 28.4727,19.122 M26.9137,22.239 C25.3357,22.239 24.0677,21.83 23.1087,21.01 C22.1487,20.191 21.6687,19.042 21.6687,17.563 C21.6687,16.005 22.1887,14.871 23.2277,14.162 C24.2667,13.453 25.7047,12.978 27.5437,12.738 C29.0417,12.558 30.0667,12.353 30.6167,12.123 C31.1647,11.894 31.4407,11.529 31.4407,11.03 C31.4407,9.931 30.7407,9.381 29.3417,9.381 C27.8437,9.381 27.0147,10.04 26.8547,11.359 L22.3587,11.359 C22.4187,9.841 23.0427,8.582 24.2317,7.583 C25.4207,6.584 27.1147,6.084 29.3127,6.084 C31.5097,6.084 33.1677,6.504 34.2877,7.343 C35.5857,8.283 36.2357,9.741 36.2357,11.719 L36.2357,19.452 C36.2357,20.671 36.4157,21.4 36.7757,21.64 L36.7757,21.85 L32.0397,21.85 C31.8397,21.57 31.6697,21 31.5307,20.141 L31.4707,20.141 C30.4917,21.54 28.9727,22.239 26.9137,22.239" id="Fill-6" fill="#2D2D2D" opacity="0.35"></path>
                <path d="M38.6035,21.8496 L38.6035,6.5036 L43.3095,6.5036 L43.3095,8.6016 L43.3995,8.6016 C44.5785,6.9036 46.1565,6.0546 48.1345,6.0546 C49.7925,6.0546 51.0965,6.5886 52.0455,7.6576 C52.9955,8.7266 53.4695,10.1306 53.4695,11.8686 L53.4695,21.8496 L48.5835,21.8496 L48.5835,12.8576 C48.5835,12.0186 48.3785,11.3546 47.9695,10.8646 C47.5595,10.3756 46.9655,10.1306 46.1865,10.1306 C45.3865,10.1306 44.7375,10.4306 44.2385,11.0296 C43.7385,11.6286 43.4895,12.4086 43.4895,13.3676 L43.4895,21.8496 L38.6035,21.8496 Z" id="Fill-8" fill="#2D2D2D" opacity="0.45"></path>
                <path d="M62.2217,22.3291 C59.9837,22.3291 58.2007,21.8451 56.8707,20.8751 C55.5417,19.9071 54.8377,18.5731 54.7587,16.8741 L59.3737,16.8741 C59.5537,18.3931 60.4927,19.1521 62.1917,19.1521 C62.9307,19.1521 63.5147,19.0171 63.9447,18.7471 C64.3737,18.4771 64.5887,18.1031 64.5887,17.6231 C64.5887,17.4641 64.5697,17.3241 64.5297,17.2041 C64.4897,17.0841 64.4187,16.9751 64.3197,16.8741 C64.2197,16.7741 64.1247,16.6841 64.0347,16.6041 C63.9447,16.5251 63.8097,16.4501 63.6297,16.3801 C63.4507,16.3101 63.2947,16.2551 63.1657,16.2151 C63.0347,16.1751 62.8457,16.1301 62.5957,16.0801 C62.3457,16.0301 62.1517,15.9901 62.0117,15.9601 C61.8707,15.9301 61.6527,15.8901 61.3527,15.8401 C61.0527,15.7901 60.8317,15.7551 60.6927,15.7351 C60.0527,15.6361 59.5137,15.5311 59.0747,15.4201 C58.6347,15.3111 58.1497,15.1361 57.6207,14.8961 C57.0907,14.6561 56.6607,14.3821 56.3317,14.0721 C56.0017,13.7621 55.7277,13.3431 55.5077,12.8131 C55.2867,12.2841 55.1777,11.6691 55.1777,10.9701 C55.1777,9.4111 55.8077,8.2031 57.0667,7.3431 C58.3257,6.4841 59.9037,6.0541 61.8017,6.0541 C63.9397,6.0541 65.5977,6.4891 66.7777,7.3581 C67.9557,8.2271 68.6057,9.4311 68.7257,10.9701 L64.2297,10.9701 C64.0697,9.7711 63.2497,9.1711 61.7717,9.1711 C61.1317,9.1711 60.6177,9.2911 60.2287,9.5311 C59.8387,9.7711 59.6437,10.1211 59.6437,10.5801 C59.6437,10.7001 59.6627,10.8101 59.7037,10.9101 C59.7427,11.0101 59.8087,11.1001 59.8987,11.1801 C59.9887,11.2601 60.0777,11.3291 60.1677,11.3891 C60.2577,11.4491 60.3827,11.5091 60.5427,11.5691 C60.7027,11.6291 60.8477,11.6791 60.9777,11.7191 C61.1077,11.7591 61.2867,11.7991 61.5167,11.8391 C61.7457,11.8791 61.9367,11.9141 62.0867,11.9441 C62.2367,11.9741 62.4417,12.0141 62.7007,12.0631 C62.9597,12.1141 63.1697,12.1491 63.3297,12.1681 C64.0097,12.2881 64.5697,12.3981 65.0087,12.4981 C65.4487,12.5991 65.9627,12.7731 66.5527,13.0231 C67.1417,13.2731 67.6067,13.5621 67.9467,13.8921 C68.2847,14.2221 68.5797,14.6711 68.8297,15.2411 C69.0797,15.8101 69.2047,16.4751 69.2047,17.2341 C69.2047,18.8721 68.5607,20.1311 67.2717,21.0101 C65.9837,21.8901 64.2997,22.3291 62.2217,22.3291" id="Fill-10" fill="#2D2D2D" opacity="0.45"></path>
                <path d="M78.8252,18.5527 C79.7642,18.5527 80.4992,18.1777 81.0282,17.4287 C81.5572,16.6787 81.8222,15.6557 81.8222,14.3567 C81.8222,12.9977 81.5622,11.9287 81.0432,11.1497 C80.5232,10.3697 79.7552,9.9807 78.7352,9.9807 C77.7172,9.9807 76.9272,10.3857 76.3682,11.1947 C75.8082,12.0037 75.5282,13.0577 75.5282,14.3567 C75.5282,15.6147 75.8182,16.6297 76.3972,17.3987 C76.9762,18.1677 77.7862,18.5527 78.8252,18.5527 L78.8252,18.5527 Z M70.7932,26.9147 L70.7932,6.5037 L75.4692,6.5037 L75.4692,8.3627 L75.5582,8.3627 C76.7372,6.8237 78.2862,6.0537 80.2042,6.0537 C82.2022,6.0537 83.7962,6.8187 84.9842,8.3467 C86.1742,9.8757 86.7682,11.8197 86.7682,14.1767 C86.7682,16.6547 86.1582,18.6327 84.9392,20.1117 C83.7212,21.5907 82.1022,22.3287 80.0842,22.3287 C78.2062,22.3287 76.7582,21.6397 75.7382,20.2607 L75.6792,20.2607 L75.6792,26.9147 L70.7932,26.9147 Z" id="Fill-12" fill="#2D2D2D" opacity="0.45"></path>
                <path d="M94.501,19.122 C95.42,19.122 96.165,18.867 96.734,18.358 C97.304,17.848 97.589,17.184 97.589,16.365 L97.589,14.537 C97.109,14.776 96.27,15.046 95.07,15.346 C94.092,15.566 93.402,15.825 93.003,16.125 C92.603,16.425 92.403,16.854 92.403,17.414 C92.403,18.553 93.103,19.122 94.501,19.122 M92.942,22.239 C91.364,22.239 90.096,21.83 89.137,21.01 C88.177,20.191 87.697,19.042 87.697,17.563 C87.697,16.005 88.217,14.871 89.256,14.162 C90.295,13.453 91.733,12.978 93.572,12.738 C95.07,12.558 96.095,12.353 96.645,12.123 C97.193,11.894 97.469,11.529 97.469,11.03 C97.469,9.931 96.769,9.381 95.37,9.381 C93.872,9.381 93.043,10.04 92.883,11.359 L88.387,11.359 C88.447,9.841 89.071,8.582 90.26,7.583 C91.449,6.584 93.143,6.084 95.341,6.084 C97.538,6.084 99.196,6.504 100.316,7.343 C101.614,8.283 102.264,9.741 102.264,11.719 L102.264,19.452 C102.264,20.671 102.444,21.4 102.804,21.64 L102.804,21.85 L98.068,21.85 C97.868,21.57 97.698,21 97.559,20.141 L97.499,20.141 C96.52,21.54 95.001,22.239 92.942,22.239" id="Fill-14" fill="#2D2D2D" opacity="0.65"></path>
                <path d="M104.6309,21.8496 L104.6309,6.5036 L109.3069,6.5036 L109.3069,8.9016 L109.3969,8.9016 C110.4359,7.1436 111.8339,6.2646 113.5929,6.2646 C114.0519,6.2646 114.3719,6.3046 114.5519,6.3836 L114.5519,10.5796 L114.4319,10.5796 C112.9129,10.3606 111.7139,10.6246 110.8349,11.3746 C109.9559,12.1236 109.5169,13.3176 109.5169,14.9556 L109.5169,21.8496 L104.6309,21.8496 Z" id="Fill-16" fill="#2D2D2D" opacity="0.65"></path>
                <path d="M119.9463,12.5283 L126.0013,12.5283 C125.9213,11.6093 125.6163,10.8803 125.0873,10.3403 C124.5573,9.8003 123.8923,9.5313 123.0933,9.5313 C121.3553,9.5313 120.3063,10.5303 119.9463,12.5283 M123.3033,22.2993 C120.8263,22.2993 118.8423,21.5343 117.3543,20.0063 C115.8653,18.4773 115.1213,16.5253 115.1213,14.1473 C115.1213,11.8293 115.8553,9.9013 117.3243,8.3623 C118.7933,6.8233 120.6853,6.0543 123.0043,6.0543 C125.1013,6.0543 126.8503,6.6943 128.2493,7.9723 C130.0873,9.6513 130.9863,12.1383 130.9463,15.4353 L119.9173,15.4353 C120.0763,16.4953 120.4463,17.3193 121.0253,17.9083 C121.6053,18.4983 122.3843,18.7923 123.3633,18.7923 C124.6223,18.7923 125.4713,18.2823 125.9113,17.2633 L130.6763,17.2633 C130.3173,18.7423 129.4583,19.9513 128.0983,20.8903 C126.7593,21.8303 125.1623,22.2993 123.3033,22.2993" id="Fill-18" fill="#2D2D2D" opacity="0.65"></path>
                <path d="M132.8945,21.8496 L132.8945,0.4196 L138.2295,0.4196 L144.5835,11.1796 L146.0515,13.9066 L146.1125,13.9066 C146.0725,12.1886 146.0515,11.0796 146.0515,10.5796 L146.0515,0.4196 L151.2375,0.4196 L151.2375,21.8496 L145.9025,21.8496 L139.6085,11.2396 L138.0805,8.3626 L138.0195,8.3626 C138.0595,10.2006 138.0805,11.3696 138.0805,11.8686 L138.0805,21.8496 L132.8945,21.8496 Z" id="Fill-20" fill="#000000"></path>
                <path d="M159.9893,21.8496 L159.9893,13.9366 L152.7363,0.4196 L158.5203,0.4196 L161.2783,5.9646 L162.6863,9.2316 L162.7473,9.2316 C163.2463,8.0326 163.7353,6.9436 164.2163,5.9646 L166.9423,0.4196 L172.5483,0.4196 L165.2943,13.9366 L165.2943,21.8496 L159.9893,21.8496 Z" id="Fill-22" fill="#000000"></path>
                <path d="M181.8096,22.3291 C178.6926,22.3291 176.1496,21.2851 174.1816,19.1971 C172.2126,17.1091 171.2296,14.4461 171.2296,11.2091 C171.2296,7.9731 172.1986,5.2951 174.1366,3.1771 C176.0746,1.0591 178.6216,0.0001 181.7796,0.0001 C184.2166,0.0001 186.2546,0.6291 187.8936,1.8881 C189.7516,3.2871 190.8216,5.2551 191.1006,7.7921 L185.7956,7.7921 C185.6566,6.8141 185.2266,6.0041 184.5066,5.3651 C183.7886,4.7251 182.8686,4.4061 181.7496,4.4061 C180.0716,4.4061 178.7966,5.0311 177.9276,6.2791 C177.0586,7.5281 176.6236,9.1711 176.6236,11.2091 C176.6236,13.2081 177.0936,14.8361 178.0336,16.0951 C178.9716,17.3541 180.2206,17.9831 181.7796,17.9831 C182.9386,17.9831 183.8926,17.6531 184.6416,16.9941 C185.3916,16.3351 185.8266,15.4761 185.9456,14.4161 L191.2506,14.4161 C191.0906,16.5751 190.2316,18.4031 188.6726,19.9011 C186.9956,21.5201 184.7056,22.3291 181.8096,22.3291" id="Fill-24" fill="#000000"></path>
            </g>
        </g>
    </g>
</svg>