<?xml version="1.0" encoding="UTF-8"?>
<svg width="180px" height="45px" viewBox="0 0 180 45" version="1.1" xmlns="http://www.w3.org/2000/svg" xmlns:xlink="http://www.w3.org/1999/xlink">
    <!-- Generator: Sketch 47.1 (45422) - http://www.bohemiancoding.com/sketch -->
    <title>Group</title>
    <desc>Created with Sketch.</desc>
    <defs>
        <polygon id="path-1" points="0.3997 36 12.8697 36 12.8697 0.2264 0.3997 0.2264 0.3997 36"></polygon>
    </defs>
    <g id="Page-1" stroke="none" stroke-width="1" fill="none" fill-rule="evenodd">
        <g id="art" transform="translate(-108.000000, -142.000000)">
            <g id="Group" transform="translate(108.000000, 141.000000)">
                <g id="Group-20" transform="translate(0.000000, 3.826200)">
                    <path d="M7.3184,0.1108 L7.3184,6.6108 L10.6404,6.6108 L10.6404,10.9928 L7.3184,10.9928 L7.3184,24.0888 C7.3184,25.7258 7.3184,28.4228 8.8594,28.4228 C9.6774,28.4228 10.6404,28.2298 10.6404,28.2298 L10.6404,32.9958 C10.6404,32.9958 9.5814,33.3338 8.0414,33.3338 C2.4554,33.3338 2.4554,27.5548 2.4554,24.4738 L2.4554,10.9928 L0.0004,10.9928 L0.0004,6.6108 L2.4554,6.6108 L2.4554,0.1108 L7.3184,0.1108 Z" id="Fill-1" fill="#2D2D2D" opacity="0.409250453"></path>
                    <path d="M22.9658,11.6187 C22.9658,11.6187 20.7028,10.8967 19.1618,12.2437 C18.2948,13.0147 18.1038,13.8337 18.1038,14.6517 L18.1038,32.9487 L13.2398,32.9487 L13.2398,6.6117 L18.1038,6.6117 L18.1038,9.5487 C18.2468,8.8737 19.4028,6.2257 22.9658,6.2257 L22.9658,11.6187 Z" id="Fill-3" fill="#2D2D2D" opacity="0.409250453"></path>
                    <path d="M30.043,28.5669 C31.149,28.5669 32.064,27.8449 32.064,26.9779 L32.064,20.2369 C29.705,21.2479 28.694,23.6079 28.694,26.1109 C28.694,26.7369 28.84,28.5669 30.043,28.5669 M32.064,15.7589 L32.064,14.8929 L32.064,12.8709 C32.064,11.9069 32.064,10.4629 30.717,10.4629 C29.08,10.4629 29.369,12.8709 29.321,14.3629 L24.457,14.3629 L24.457,13.2549 C24.457,9.4029 27.298,6.2259 31.006,6.2259 C34.184,6.2259 36.929,8.7779 36.929,12.1959 L36.929,20.4299 L36.929,28.3739 C36.929,30.7339 37.072,31.7929 37.265,32.9479 L32.498,32.9479 C32.064,32.4669 32.064,31.1189 32.064,30.8299 L31.729,30.8299 C31.247,31.7449 29.803,33.3339 27.827,33.3339 C26.528,33.3339 23.928,32.3709 23.928,26.8329 C23.928,17.9259 31.583,17.3479 32.064,15.7589" id="Fill-5" fill="#2D2D2D" opacity="0.409250453"></path>
                    <path d="M45.4492,12.1963 L45.4492,32.9483 L40.5862,32.9483 L40.5862,6.6113 L45.4492,6.6113 L45.4492,8.8253 C45.8342,8.5853 47.7122,6.2263 49.3972,6.2263 C51.9972,6.2263 53.0562,9.2113 53.0562,11.3783 L53.0562,32.9483 L48.1932,32.9483 L48.1932,12.1003 C48.1932,11.0893 47.6162,10.9443 47.0382,10.9443 C46.0752,10.9443 45.4492,12.1963 45.4492,12.1963" id="Fill-7" fill="#2D2D2D" opacity="0.62647192"></path>
                    <path d="M62.252,6.2261 C67.934,6.1301 68.463,10.3661 68.463,13.3521 L63.937,13.3521 C63.937,12.1001 63.889,10.2701 62.349,10.2701 C61.048,10.3181 60.856,12.0031 60.856,13.3521 C60.856,15.0371 62.54,16.6261 64.033,18.0701 C66.152,20.0931 68.512,22.6921 68.512,26.1111 C68.512,29.3851 66.922,33.3331 62.3,33.3331 C56.377,33.3331 55.512,28.1331 55.512,25.2921 L60.037,25.2921 C60.037,26.6891 60.278,29.2891 62.3,29.2891 C63.696,29.2891 63.984,27.6521 63.984,26.1111 C63.984,24.5221 62.444,22.8851 60.952,21.4411 C58.689,19.2741 56.329,17.1561 56.329,13.3521 C56.329,10.2221 57.581,6.3221 62.252,6.2261" id="Fill-9" fill="#2D2D2D" opacity="0.62647192"></path>
                    <g id="Group-13" opacity="0.751528533" transform="translate(71.000000, 6.000000)">
                        <path d="M5.2627,21.1704 C5.2627,21.9414 5.9857,22.7594 6.7067,22.7594 C7.4297,22.7594 8.0067,22.0854 8.0067,21.1704 L8.0067,6.3894 C8.0067,5.4744 7.4297,4.7994 6.7067,4.7994 C6.0337,4.7994 5.2627,5.4744 5.2627,6.3894 L5.2627,21.1704 Z M0.3997,0.6114 L5.2627,0.6114 L5.2627,2.3444 C5.2627,2.3444 7.3317,0.2264 9.1147,0.2264 C11.7627,0.2264 12.8697,3.2114 12.8697,5.3784 L12.8697,22.1814 C12.8697,24.3484 11.7627,27.3334 9.1147,27.3334 C7.3317,27.3334 5.2627,25.2144 5.2627,25.2144 L5.2627,36.0004 L0.3997,36.0004 L0.3997,0.6114 Z" id="Fill-11" fill="#2D2D2D"></path>
                        <mask id="mask-2" fill="white">
                            <use xlink:href="#path-1"></use>
                        </mask>
                        <g id="Clip-12"></g>
                    </g>
                    <path d="M92.584,28.5669 C93.691,28.5669 94.606,27.8449 94.606,26.9779 L94.606,20.2369 C92.247,21.2479 91.236,23.6079 91.236,26.1109 C91.236,26.7369 91.381,28.5669 92.584,28.5669 M94.606,15.7589 L94.606,14.8929 L94.606,12.8709 C94.606,11.9069 94.606,10.4629 93.259,10.4629 C91.621,10.4629 91.91,12.8709 91.862,14.3629 L86.999,14.3629 L86.999,13.2549 C86.999,9.4029 89.84,6.2259 93.547,6.2259 C96.725,6.2259 99.47,8.7779 99.47,12.1959 L99.47,20.4299 L99.47,28.3739 C99.47,30.7339 99.613,31.7929 99.807,32.9479 L95.04,32.9479 C94.606,32.4669 94.606,31.1189 94.606,30.8299 L94.27,30.8299 C93.788,31.7449 92.344,33.3339 90.369,33.3339 C89.069,33.3339 86.47,32.3709 86.47,26.8329 C86.47,17.9259 94.125,17.3479 94.606,15.7589" id="Fill-14" fill="#2D2D2D" opacity="0.751528533"></path>
                    <path d="M112.8535,11.6187 C112.8535,11.6187 110.5905,10.8967 109.0495,12.2437 C108.1825,13.0147 107.9915,13.8337 107.9915,14.6517 L107.9915,32.9487 L103.1275,32.9487 L103.1275,6.6117 L107.9915,6.6117 L107.9915,9.5487 C108.1345,8.8737 109.2905,6.2257 112.8535,6.2257 L112.8535,11.6187 Z" id="Fill-16" fill="#2D2D2D" opacity="0.751528533"></path>
                    <path d="M118.9189,16.8667 L122.4329,16.8667 L122.4329,13.1587 C122.4329,13.1587 122.5289,10.4627 120.6989,10.4627 C118.9189,10.4627 118.9189,13.1587 118.9189,13.1587 L118.9189,16.8667 Z M126.9599,23.5107 L126.9599,26.5447 C126.9599,26.5447 126.9599,33.3337 120.6509,33.3337 C114.3929,33.3337 114.3929,26.4007 114.3929,26.4007 L114.3929,13.1587 C114.3929,13.1587 114.4399,6.2257 120.6989,6.2257 C127.0079,6.2257 126.9599,13.0147 126.9599,13.0147 L126.9599,20.6707 L118.9189,20.6707 L118.9189,26.4007 C118.9189,26.4007 118.9189,29.0487 120.6989,29.0487 C122.5289,29.0487 122.4329,26.4007 122.4329,26.4007 L122.4329,23.5107 L126.9599,23.5107 Z" id="Fill-18" fill="#2D2D2D" opacity="0.75"></path>
                </g>
                <polygon id="Fill-21" fill="#000000" points="140.6799 1.3851 140.6799 19.8261 140.6799 21.4631 140.3919 21.4631 139.9579 19.8261 134.9019 1.3851 130.2799 1.3851 130.2799 36.7741 135.0469 36.7741 135.0469 18.3341 135.0469 16.6971 135.3349 16.6971 135.7689 18.3341 140.8249 36.7741 145.4459 36.7741 145.4459 1.3851"></polygon>
                <polygon id="Fill-22" fill="#000000" points="158.3982 1.3851 155.7982 12.7001 155.6532 13.0371 155.5582 13.0371 155.4122 12.7001 152.8132 1.3851 147.7082 1.3851 153.0042 21.7041 153.0042 36.7741 158.2052 36.7741 158.2052 21.7041 163.5012 1.3851"></polygon>
                <path d="M179.292,24.6411 L179.292,29.5041 C179.292,29.5041 179.341,37.1601 172.359,37.1601 C165.378,37.1601 165.426,29.5041 165.426,29.5041 L165.426,8.6561 C165.426,8.6561 165.378,1.0001 172.359,1.0001 C179.341,1.0001 179.292,8.6561 179.292,8.6561 L179.292,13.5181 L174.43,13.5181 L174.43,8.6561 C174.43,8.6561 174.622,6.0561 172.455,6.0561 C170.626,6.0561 170.626,8.6561 170.626,8.6561 L170.626,29.5041 C170.626,29.5041 170.626,32.1041 172.455,32.1041 C174.622,32.1041 174.43,29.5041 174.43,29.5041 L174.43,24.6411 L179.292,24.6411 Z" id="Fill-23" fill="#000000"></path>
                <g id="Group-25" transform="translate(165.000000, 0.826200)"></g>
            </g>
        </g>
    </g>
</svg>